# xmcd CD database file
#
# Track frame offsets:
#	150
#	20917
#	39937
#	59780
#	78427
#	98777
#	119315
#	139307
#	155367
#	173570
#	191477
#
# Disc length: 2830 seconds
#
# Revision: 2
# Processed by: cddbd v1.5.2PL0 Copyright (c) Steve Scherf et al.
# Submitted via: CDex 1.70beta2
#
DISCID=910b0c0b
DTITLE=杏里 - MYSTIQUE
DYEAR=1986
DGENRE=Pop
TTITLE0=RED MOON CALLING
TTITLE1=SENTIMENTAL EXPRESS
TTITLE2=HQNEMOON SHUTTLE
TTITLE3=MYSTERY ZONE
TTITLE4=ALL OF YOU
TTITLE5=MORNING SQUALL
TTITLE6=SOUTHERN COMFORT
TTITLE7=PRIDE AND TEARS
TTITLE8=WHISPER IN PARADISE
TTITLE9=EASY BREAK
TTITLE10=INNOCENT TIME
EXTD=YEAR: 1986
EXTT0=
EXTT1=
EXTT2=
EXTT3=
EXTT4=
EXTT5=
EXTT6=
EXTT7=
EXTT8=
EXTT9=
EXTT10=
PLAYORDER=
